<svg xmlns="http://www.w3.org/2000/svg" width="84.411" height="54.039" viewBox="0 0 84.411 54.039">
  <g id="Apple_Pay_Mark_RGB_041619" transform="translate(0)">
    <path id="XMLID_4_" d="M76.852,0H7.559c-.289,0-.578,0-.866,0-.244,0-.486,0-.729.011a10.6,10.6,0,0,0-1.587.14,5.36,5.36,0,0,0-1.509.5A5.071,5.071,0,0,0,.649,2.868a5.336,5.336,0,0,0-.5,1.509,10.529,10.529,0,0,0-.14,1.587C.006,6.208,0,6.451,0,6.694c0,.289,0,.577,0,.866V46.48c0,.289,0,.577,0,.866,0,.243,0,.486.011.729a10.524,10.524,0,0,0,.14,1.586,5.335,5.335,0,0,0,.5,1.509A5.071,5.071,0,0,0,2.868,53.39a5.339,5.339,0,0,0,1.509.5,10.68,10.68,0,0,0,1.587.14q.364.008.729.01c.288,0,.577,0,.866,0H76.852c.288,0,.577,0,.865,0q.364,0,.73-.01a10.709,10.709,0,0,0,1.588-.14,5.343,5.343,0,0,0,1.508-.5,5.071,5.071,0,0,0,2.219-2.218,5.3,5.3,0,0,0,.5-1.509,10.524,10.524,0,0,0,.14-1.586q.01-.364.011-.729c0-.289,0-.577,0-.866V7.56c0-.289,0-.578,0-.866q0-.364-.011-.729a10.528,10.528,0,0,0-.14-1.587,5.3,5.3,0,0,0-.5-1.509A5.071,5.071,0,0,0,81.543.65a5.365,5.365,0,0,0-1.508-.5,10.628,10.628,0,0,0-1.588-.14C78.2.006,77.96,0,77.717,0c-.288,0-.577,0-.865,0Z" transform="translate(0)"/>
    <path id="XMLID_3_" d="M78.583,3.532l.852,0c.231,0,.462,0,.694.01a9,9,0,0,1,1.317.112,3.556,3.556,0,0,1,1.012.331,3.27,3.27,0,0,1,1.43,1.431,3.508,3.508,0,0,1,.329,1.011,8.957,8.957,0,0,1,.112,1.316c.006.229.009.459.01.694,0,.284,0,.568,0,.852v38.92c0,.285,0,.568,0,.858,0,.229,0,.459-.01.689a8.943,8.943,0,0,1-.112,1.32,3.5,3.5,0,0,1-.329,1.007,3.27,3.27,0,0,1-1.432,1.431,3.527,3.527,0,0,1-1.005.329,9.16,9.16,0,0,1-1.312.112c-.233.005-.465.008-.7.01-.283,0-.568,0-.851,0H9.279c-.28,0-.561,0-.846,0-.233,0-.465,0-.689-.009a9.176,9.176,0,0,1-1.317-.112,3.538,3.538,0,0,1-1.013-.332,3.27,3.27,0,0,1-1.428-1.429,3.536,3.536,0,0,1-.33-1.012,8.911,8.911,0,0,1-.112-1.315c-.006-.231-.009-.461-.01-.691V8.436c0-.231,0-.461.01-.692a8.918,8.918,0,0,1,.113-1.319,3.531,3.531,0,0,1,.33-1.01,3.27,3.27,0,0,1,1.43-1.429,3.549,3.549,0,0,1,1.01-.33,8.993,8.993,0,0,1,1.318-.112c.231-.006.462-.009.691-.01l.855,0H78.583" transform="translate(-1.731 -1.731)" fill="#fff"/>
    <g id="Group_1846" data-name="Group 1846" transform="translate(11.441 14.817)">
      <g id="Group_1844" data-name="Group 1844">
        <path id="Path_5740" data-name="Path 5740" d="M42.161,32.414a4.711,4.711,0,0,0,1.084-3.358,4.671,4.671,0,0,0-3.1,1.6,4.41,4.41,0,0,0-1.11,3.228,3.9,3.9,0,0,0,3.123-1.472" transform="translate(-30.559 -29.055)"/>
        <path id="Path_5741" data-name="Path 5741" d="M35.108,38.976c-1.725-.1-3.191.979-4.015.979s-2.085-.927-3.45-.9a5.086,5.086,0,0,0-4.324,2.627c-1.853,3.194-.489,7.932,1.313,10.534.875,1.287,1.93,2.7,3.32,2.653,1.313-.052,1.828-.85,3.424-.85s2.059.85,3.449.825c1.442-.026,2.343-1.288,3.218-2.576A11.433,11.433,0,0,0,39.484,49.3a4.678,4.678,0,0,1-2.805-4.25,4.768,4.768,0,0,1,2.265-3.992,4.931,4.931,0,0,0-3.836-2.085" transform="translate(-22.435 -33.913)"/>
      </g>
      <g id="Group_1845" data-name="Group 1845" transform="translate(20.447 1.473)">
        <path id="Path_5742" data-name="Path 5742" d="M69.774,31.944a6.062,6.062,0,0,1,6.359,6.346,6.129,6.129,0,0,1-6.453,6.373H65.529v6.6h-3V31.944Zm-4.245,10.2H68.97c2.611,0,4.1-1.406,4.1-3.843s-1.486-3.829-4.083-3.829H65.529Z" transform="translate(-62.53 -31.944)"/>
        <path id="Path_5743" data-name="Path 5743" d="M90.74,52.047c0-2.464,1.888-3.977,5.235-4.164l3.856-.228V46.571c0-1.567-1.058-2.5-2.825-2.5-1.674,0-2.718.8-2.972,2.062H91.3c.161-2.544,2.329-4.418,5.811-4.418,3.414,0,5.6,1.808,5.6,4.633V56.05H99.938V53.733h-.067a5.033,5.033,0,0,1-4.445,2.557C92.668,56.291,90.74,54.577,90.74,52.047Zm9.091-1.272V49.663l-3.468.214c-1.727.121-2.7.884-2.7,2.089C93.659,53.2,94.676,54,96.229,54A3.376,3.376,0,0,0,99.831,50.775Z" transform="translate(-76.354 -36.73)"/>
        <path id="Path_5744" data-name="Path 5744" d="M118,61.476V59.133a5.353,5.353,0,0,0,.937.053,2.346,2.346,0,0,0,2.5-2.008c0-.027.255-.857.255-.87l-5.088-14.1h3.133l3.562,11.461h.053l3.562-11.461h3.053L124.7,57.03c-1.2,3.414-2.6,4.512-5.516,4.512A11.174,11.174,0,0,1,118,61.476Z" transform="translate(-89.031 -36.974)"/>
      </g>
    </g>
  </g>
</svg>
