<!--?xml version="1.0" standalone="no"?-->
              <svg id="sw-js-blob-svg" viewBox="0 0 100 100" xmlns="http://www.w3.org/2000/svg" version="1.1">
                    <defs> 
                        <linearGradient id="sw-gradient" x1="0" x2="1" y1="1" y2="0">
                            <stop id="stop1" stop-color="rgba(248, 117, 55, 1)" offset="0%"></stop>
                            <stop id="stop2" stop-color="rgba(255, 255, 255, 1)" offset="100%"></stop>
                        </linearGradient>
                    </defs>
                <path fill="url(#sw-gradient)" d="M19.6,-22.5C27.3,-16.8,36.9,-12.5,38.9,-6.2C40.8,0.2,35.1,8.6,29.4,15.5C23.6,22.4,17.9,27.9,10.6,31.7C3.2,35.5,-5.6,37.7,-14.4,36C-23.1,34.4,-31.7,28.8,-37,20.8C-42.2,12.8,-44.2,2.3,-42.4,-7.5C-40.7,-17.3,-35.4,-26.6,-27.7,-32.3C-20,-38.1,-10,-40.4,-2.1,-37.9C5.9,-35.5,11.8,-28.3,19.6,-22.5Z" width="100%" height="100%" transform="translate(50 50)" stroke-width="0" style="transition: all 0.3s ease 0s;" stroke="url(#sw-gradient)"></path>
              </svg>