<svg xmlns="http://www.w3.org/2000/svg" xmlns:xlink="http://www.w3.org/1999/xlink" width="74.87" height="72.581" viewBox="0 0 74.87 72.581">
  <defs>
    <linearGradient id="linear-gradient" x1="0.501" y1="0.554" x2="0.501" y2="1.184" gradientUnits="objectBoundingBox">
      <stop offset="0.128" stop-color="#bd1e1e"/>
      <stop offset="0.781" stop-color="#971a1a"/>
    </linearGradient>
    <linearGradient id="linear-gradient-2" x1="-0.091" y1="0.5" x2="1.192" y2="0.5" gradientUnits="objectBoundingBox">
      <stop offset="0.108" stop-color="#bd1e1e"/>
      <stop offset="0.815" stop-color="#0d2341"/>
    </linearGradient>
    <linearGradient id="linear-gradient-3" y1="0.5" x2="1.001" y2="0.5" gradientUnits="objectBoundingBox">
      <stop offset="0.147" stop-color="#0d2341"/>
      <stop offset="0.88" stop-color="#0d2341"/>
    </linearGradient>
  </defs>
  <g id="logo_p24_now_square" data-name="logo p24 now square" transform="translate(-209.755 -238.999)">
    <g id="napis" transform="translate(209.779 298.337)">
      <path id="Path_3273" data-name="Path 3273" d="M237.08,10.3a4.986,4.986,0,0,1,3.357.977,3.485,3.485,0,0,1,1.127,2.79,3.752,3.752,0,0,1-.308,1.53,3.463,3.463,0,0,1-.9,1.209,4.054,4.054,0,0,1-1.409.784,5.662,5.662,0,0,1-1.871.283h-2.357v5.118H233.8V10.3Zm0,6.841a4.454,4.454,0,0,0,1.486-.232,3.261,3.261,0,0,0,1.115-.643,2.806,2.806,0,0,0,.7-.977,2.972,2.972,0,0,0,.243-1.222,2.822,2.822,0,0,0-.9-2.25,3.907,3.907,0,0,0-2.665-.784h-2.345v6.108Z" transform="translate(-233.8 -9.89)" fill="#1d1e1e"/>
      <path id="Path_3274" data-name="Path 3274" d="M314.266,21.048a.263.263,0,0,1,.218.09.3.3,0,0,1,.077.219v.5H306.4v-.308a.442.442,0,0,1,.051-.206.913.913,0,0,1,.128-.18l4.318-4.385c.359-.36.692-.72.987-1.054a8.2,8.2,0,0,0,.794-1.029,5.489,5.489,0,0,0,.525-1.067,3.5,3.5,0,0,0,.192-1.17,2.906,2.906,0,0,0-.231-1.209,2.337,2.337,0,0,0-.615-.849,2.431,2.431,0,0,0-.9-.488,3.591,3.591,0,0,0-1.051-.167,3.357,3.357,0,0,0-1.1.18,3.083,3.083,0,0,0-.9.514,2.728,2.728,0,0,0-.641.784,3.65,3.65,0,0,0-.359.99.448.448,0,0,1-.167.257.471.471,0,0,1-.282.039l-.436-.077a4.593,4.593,0,0,1,.448-1.453,3.515,3.515,0,0,1,.846-1.08,3.434,3.434,0,0,1,1.179-.669,4.7,4.7,0,0,1,2.831-.026,3.534,3.534,0,0,1,1.166.63,3.024,3.024,0,0,1,.794,1.067,3.62,3.62,0,0,1,.295,1.5,4.122,4.122,0,0,1-.218,1.337,5.658,5.658,0,0,1-.589,1.183,8.568,8.568,0,0,1-.871,1.093c-.333.36-.679.72-1.038,1.093l-3.959,4.05a4.338,4.338,0,0,1,.589-.1,4.936,4.936,0,0,1,.615-.039h5.458Z" transform="translate(-297.099 -8.756)" fill="#1d1e1e"/>
      <path id="Path_3275" data-name="Path 3275" d="M390.229,18.584v.463a.214.214,0,0,1-.064.154.253.253,0,0,1-.18.064H387.91V22.9h-.756V19.265h-5.971a.3.3,0,0,1-.307-.219l-.077-.424,6.355-8.422h.756v8.384Zm-3.062,0V11.936a3.16,3.16,0,0,1,.013-.334,3.424,3.424,0,0,0,.026-.373l-5.471,7.342h5.432Z" transform="translate(-361.967 -9.802)" fill="#1d1e1e"/>
      <path id="Path_3276" data-name="Path 3276" d="M479.59,8.19V21.151h-1.242a1.041,1.041,0,0,1-.474-.09,1.061,1.061,0,0,1-.372-.321L470.763,12.1c.038.4.051.759.051,1.093v7.959H468.7V8.19h1.255a1.715,1.715,0,0,1,.269.013.693.693,0,0,1,.192.051.651.651,0,0,1,.166.115,1.557,1.557,0,0,1,.18.206l6.764,8.679c-.013-.206-.038-.412-.038-.617s-.013-.386-.013-.566V8.19Z" transform="translate(-438.605 -8.048)" fill="#1d1e1e"/>
      <path id="Path_3277" data-name="Path 3277" d="M581.874,13.715a7.084,7.084,0,0,1-.474,2.636,6.074,6.074,0,0,1-3.4,3.484,7.366,7.366,0,0,1-5.342,0,5.965,5.965,0,0,1-2.063-1.389,6.226,6.226,0,0,1-1.332-2.1,7.083,7.083,0,0,1-.474-2.635,7.084,7.084,0,0,1,.474-2.636,6.074,6.074,0,0,1,3.4-3.484,6.884,6.884,0,0,1,2.665-.5,7.112,7.112,0,0,1,1.845.231,6.971,6.971,0,0,1,1.589.643,5.875,5.875,0,0,1,1.294,1.016,5.959,5.959,0,0,1,.974,1.337,6.433,6.433,0,0,1,.615,1.594A6.859,6.859,0,0,1,581.874,13.715Zm-2.46,0a5.959,5.959,0,0,0-.282-1.916,4.242,4.242,0,0,0-.807-1.44,3.364,3.364,0,0,0-1.281-.9,4.859,4.859,0,0,0-3.408,0,3.512,3.512,0,0,0-1.281.9,4.067,4.067,0,0,0-.82,1.44,5.963,5.963,0,0,0-.282,1.916,5.963,5.963,0,0,0,.282,1.916,4.065,4.065,0,0,0,.82,1.44,3.623,3.623,0,0,0,1.281.9,4.859,4.859,0,0,0,3.408,0,3.51,3.51,0,0,0,1.281-.9,3.93,3.93,0,0,0,.807-1.44A6.341,6.341,0,0,0,579.415,13.715Z" transform="translate(-525.874 -7.093)" fill="#1d1e1e"/>
      <path id="Path_3278" data-name="Path 3278" d="M692.362,8.19l-4.01,12.961h-2.165l-2.819-8.859a6.029,6.029,0,0,1-.218-.784c-.039.154-.077.3-.1.424s-.077.257-.115.373l-2.857,8.846H677.9l-4-12.961h2.012a.876.876,0,0,1,.525.154.741.741,0,0,1,.282.4l2.191,7.741c.051.193.09.4.141.617s.09.463.141.707c.051-.257.1-.489.154-.707s.115-.424.18-.617l2.536-7.753a.851.851,0,0,1,.282-.373.769.769,0,0,1,.512-.167h.7a.811.811,0,0,1,.512.154.93.93,0,0,1,.295.4l2.524,7.753a8.845,8.845,0,0,1,.333,1.286c.077-.476.167-.9.256-1.286l2.2-7.753a.67.67,0,0,1,.269-.386.883.883,0,0,1,.525-.167h1.883Z" transform="translate(-617.516 -8.049)" fill="#1d1e1e"/>
    </g>
    <g id="logo" transform="translate(209.755 238.999)">
      <path id="Path_3279" data-name="Path 3279" d="M70.756,11.475v-1.3a3.318,3.318,0,0,0-1.777-2.957,3.363,3.363,0,0,0-3.433.162L33.52,28.812h0L16.235,40.356v.04L6.743,46.756V16.822l11.551,7.7a3.356,3.356,0,0,0,3.716-5.59L5.25,7.708a3.279,3.279,0,0,0-3.433-.162A3.365,3.365,0,0,0,.04,10.5V51.212H0v1.782A3.318,3.318,0,0,0,1.776,55.95a3.15,3.15,0,0,0,1.575.406,3.448,3.448,0,0,0,1.858-.567L37.236,34.4h0l18.9-12.6,7.956-5.428V46.391l-11.55-7.7a3.356,3.356,0,0,0-3.716,5.59l16.76,11.18a3.448,3.448,0,0,0,1.858.567,3.15,3.15,0,0,0,1.575-.405A3.365,3.365,0,0,0,70.8,52.67Z" transform="translate(0.001 -4.083)" fill="#e0e2e1"/>
      <path id="Path_3280" data-name="Path 3280" d="M16.5,41.706V11.437l11.55,7.7a3.357,3.357,0,0,0,3.716-5.592L15.009,2.361A3.278,3.278,0,0,0,11.576,2.2,3.32,3.32,0,0,0,9.8,5.157V46.244Z" transform="translate(-5.841 -1.079)" fill="url(#linear-gradient)"/>
      <path id="Path_3281" data-name="Path 3281" d="M78.72.421a3.365,3.365,0,0,0-3.433.162L43.26,21.97h0L25.975,33.555v.04L9.7,44.451v1.782a3.318,3.318,0,0,0,1.777,2.957,3.15,3.15,0,0,0,1.575.405,3.448,3.448,0,0,0,1.858-.567L46.976,27.6h0L65.836,15,80.5,5V3.378A3.365,3.365,0,0,0,78.72.421Z" transform="translate(-5.782 -0.028)" fill="url(#linear-gradient-2)"/>
      <path id="Path_3282" data-name="Path 3282" d="M143.677,46.387l-11.551-7.7a3.357,3.357,0,0,0-3.716,5.592l16.76,11.183a3.447,3.447,0,0,0,1.858.567,3.149,3.149,0,0,0,1.575-.405,3.367,3.367,0,0,0,1.777-2.958V11.5l-6.7,4.66Z" transform="translate(-75.511 -6.867)" fill="url(#linear-gradient-3)"/>
    </g>
  </g>
</svg>
